<svg xmlns="http://www.w3.org/2000/svg" viewBox="0 0 512 512">
  <circle cx="256" cy="256" r="240" fill="black" />
  <path d="M256 80c-97.2 0-176 78.8-176 176s78.8 176 176 176c46.7 0 89-18.2 120.2-47.8-15.6 2.4-31.5 3.8-47.8 3.8-132.5 0-240-107.5-240-240 0-48.5 14.4-93.6 39.1-131.4C118.8 91.5 80 169.2 80 256c0 97.2 78.8 176 176 176 58.5 0 110.1-28.5 141.8-72.2C365.1 405.5 313.5 432 256 432c-97.2 0-176-78.8-176-176S158.8 80 256 80z" fill="white" />
  <circle cx="256" cy="256" r="140" fill="white" />
  <path d="M256 116c-77.3 0-140 62.7-140 140s62.7 140 140 140 140-62.7 140-140c0-10.4-1.1-20.5-3.3-30.2C364.5 249.2 256 312 256 312s-60-90 0-196z" fill="black" />
</svg>
